<svg width="36" height="36" viewBox="0 0 36 36" fill="none" xmlns="http://www.w3.org/2000/svg">
<path d="M24.4438 12.5L21.0923 10.2656L1.49854 23.5L17.9985 34.5L34.4985 23.5L27.6235 18.9453L19.3735 24.5313L22.9829 26.8516L17.9985 29.8594L8.63134 23.5L24.4438 12.5Z" fill="#FCFDFE"/>
<path d="M8.37353 29.9453L4.93603 27.625L1.49854 29.9453V34.5L8.37353 29.9453Z" fill="#FCFDFE"/>
<path d="M34.4985 12.5L17.9985 1.5L1.49854 12.5L8.37353 17.0547L16.6235 11.4688L13.0142 9.14844L17.9985 6.14063L27.3657 12.5L11.5532 23.5L14.9048 25.7344L34.4985 12.5Z" fill="#FCFDFE"/>
<path d="M34.4985 6.05469V1.5L27.6235 6.05469L31.061 8.375L34.4985 6.05469Z" fill="#FCFDFE"/>
</svg>
